USFL
nRows=127
nColumns=2
inDegrees=yes
endheader
time	med_gas_r	
2.79133	 47.919738	
2.8629	 47.936796	
2.93448	 47.962273	
3.00605	 47.936650	
3.07762	 47.989359	
3.14919	 47.963538	
3.22077	 47.974157	
3.29234	 47.922542	
3.36391	 47.908997	
3.43548	 47.903778	
3.50706	 47.905158	
3.57863	 47.897534	
3.6502	 47.851512	
3.72177	 47.865343	
3.79335	 47.866297	
3.86492	 47.880271	
3.93649	 47.899737	
4.00806	 47.882736	
4.07964	 47.909545	
4.15121	 47.910939	
4.22278	 47.880696	
4.29435	 47.881371	
4.36593	 47.917489	
4.4375	 47.893679	
4.50907	 47.947299	
4.58065	 47.912720	
4.65222	 47.830992	
4.72379	 47.871209	
4.79536	 47.954881	
4.86694	 47.927603	
4.93851	 47.974669	
5.01008	 47.987604	
5.08165	 47.967958	
5.15323	 48.040715	
5.2248	 44.874630	
5.29637	 44.741852	
5.36794	 41.369882	
5.43952	 40.328902	
5.51109	 40.215302	
5.58266	 40.270864	
5.65423	 40.768125	
5.72581	 41.009602	
5.79738	 40.248864	
5.86895	 40.303609	
5.94052	 40.508292	
6.0121	 40.485473	
6.08367	 40.836942	
6.15524	 40.871102	
6.22681	 41.044944	
6.29839	 40.791507	
6.36996	 40.574714	
6.44153	 40.576594	
6.5131	 40.657203	
6.58468	 40.619261	
6.65625	 40.777402	
6.72782	 40.689466	
6.7994	 40.524908	
6.87097	 40.512491	
6.94254	 40.423913	
7.01411	 40.412023	
7.08569	 40.460283	
7.15726	 40.482687	
7.22883	 40.585277	
7.3004	 40.492795	
7.37198	 40.451302	
7.44355	 40.581923	
7.51512	 40.476430	
7.58669	 40.452074	
7.65827	 40.420030	
7.72984	 40.502213	
7.80141	 40.434926	
7.87298	 40.346402	
7.94456	 40.323703	
8.01613	 40.280379	
8.0877	 40.138022	
8.15927	 40.183378	
8.23085	 40.133170	
8.30242	 40.107429	
8.37399	 40.098105	
8.44556	 40.157313	
8.51714	 40.154162	
8.58871	 40.168107	
8.66028	 40.034849	
8.73185	 39.932040	
8.80343	 39.932414	
8.875	 39.753436	
8.94657	 39.626799	
9.01815	 39.656792	
9.08972	 39.651673	
9.16129	 39.700045	
9.23286	 39.705236	
9.30444	 39.678921	
9.37601	 39.664862	
9.44758	 39.688343	
9.51915	 39.647848	
9.59073	 39.655875	
9.6623	 39.597129	
9.73387	 39.531468	
9.80544	 39.339568	
9.87702	 39.408291	
9.94859	 39.197963	
10.0202	 39.175230	
10.0917	 39.114083	
10.1633	 40.892405	
10.2349	 41.927534	
10.3065	 44.714932	
10.378	 47.319474	
10.4496	 47.517297	
10.5212	 48.779064	
10.5927	 48.580853	
10.6643	 48.613526	
10.7359	 48.728441	
10.8075	 48.736184	
10.879	 48.869039	
10.9506	 49.091872	
11.0222	 49.069715	
11.0937	 49.109414	
11.1653	 49.110317	
11.2369	 49.214467	
11.3085	 49.184003	
11.38	 49.132288	
11.4516	 49.155145	
11.5232	 49.197555	
11.5948	 49.120516	
11.6663	 49.037624	
11.7379	 48.993142	
11.8095	 48.941101	
